<svg width="238" height="59" viewBox="0 0 238 59" fill="none" xmlns="http://www.w3.org/2000/svg">
<rect width="238" height="59" rx="15" fill="#BF8B2E"/>
<path fill-rule="evenodd" clip-rule="evenodd" d="M131.319 18.0562V12.5935L133.198 18.0591H135.296L133.382 12.6489C134.527 12.388 134.985 11.6303 134.985 10.3481V8.81956C134.985 7.14679 134.256 6.14575 132.231 6.14575H129.316V18.0562H131.319ZM131.318 11.4861V7.78504L131.986 7.78796C132.672 7.78796 132.971 8.10415 132.971 8.75402V10.5026C132.971 11.135 132.672 11.4861 131.986 11.4861H131.318Z" fill="white"/>
<path d="M136.061 6.14575H140.839V7.78064H138.07V11.1874H140.055V12.8048H138.065V16.4228H140.833V18.0562H136.061V6.14575Z" fill="white"/>
<path d="M141.787 15.4917V13.8888H143.649V15.5223C143.649 16.1896 143.941 16.5772 144.633 16.5772C145.265 16.5772 145.546 16.1546 145.546 15.5223V15.0705C145.546 14.3857 145.265 13.9631 144.65 13.3832L143.474 12.2073C142.332 11.0824 141.804 10.3976 141.804 9.02643V8.62281C141.804 7.14675 142.666 6 144.615 6C146.619 6 147.409 6.98355 147.409 8.70441V9.67193H145.581V8.63446C145.581 7.94962 145.265 7.61448 144.633 7.61448C144.072 7.61448 143.684 7.93068 143.684 8.59804V8.84429C143.684 9.51165 144.053 9.89778 144.633 10.4602L145.912 11.7337C147.002 12.8412 147.529 13.5085 147.529 14.8257V15.4086C147.529 17.042 146.655 18.2019 144.615 18.2019C142.575 18.2019 141.787 17.0551 141.787 15.4917Z" fill="white"/>
<path fill-rule="evenodd" clip-rule="evenodd" d="M151.503 6.14575H148.535V18.0562H150.537V14.0156H151.503C153.522 14.0156 154.261 12.9971 154.261 11.3287V8.81664C154.261 7.14679 153.522 6.14575 151.503 6.14575ZM150.536 12.4695V7.78046H151.273C151.958 7.78046 152.257 8.09665 152.257 8.74652V11.4859C152.257 12.1358 151.958 12.4695 151.273 12.4695H150.536Z" fill="white"/>
<path fill-rule="evenodd" clip-rule="evenodd" d="M155.277 9.22013V14.9816C155.277 16.8336 156.172 18.1974 158.298 18.1974C160.424 18.1974 161.338 16.8263 161.338 14.9816V9.22013C161.338 7.35794 160.405 6.00574 158.298 6.00574C156.191 6.00574 155.277 7.35794 155.277 9.22013ZM159.336 8.90401V15.2978C159.336 16.0191 159.002 16.5276 158.298 16.5276C157.595 16.5276 157.278 16.0191 157.278 15.2978V8.90401C157.278 8.1842 157.577 7.67421 158.298 7.67421C159.02 7.67421 159.336 8.1842 159.336 8.90401Z" fill="white"/>
<path d="M164.147 10.5681V18.0518H162.461V6.14575H164.429L166.589 12.9796V6.14575H168.258V18.0562H166.501L164.147 10.5681Z" fill="white"/>
<path d="M169.293 15.4917V13.8888H171.156V15.5223C171.156 16.1896 171.447 16.5772 172.139 16.5772C172.771 16.5772 173.053 16.1546 173.053 15.5223V15.0705C173.053 14.3857 172.771 13.9631 172.157 13.3832L170.979 12.2073C169.838 11.0824 169.311 10.3976 169.311 9.02643V8.62281C169.311 7.14675 170.172 6 172.122 6C174.124 6 174.915 6.98355 174.915 8.70441V9.67193H173.088V8.63447C173.088 7.94962 172.771 7.61448 172.139 7.61448C171.577 7.61448 171.191 7.93068 171.191 8.59804V8.84429C171.191 9.51165 171.559 9.89778 172.139 10.4602L173.421 11.725C174.511 12.8324 175.037 13.4998 175.037 14.817V15.3999C175.037 17.0333 174.163 18.1931 172.123 18.1931C170.083 18.1931 169.293 17.0551 169.293 15.4917Z" fill="white"/>
<path d="M176.038 6.14575H178.041V18.0562H176.038V6.14575Z" fill="white"/>
<path fill-rule="evenodd" clip-rule="evenodd" d="M179.182 6.14575H182.082C184.084 6.14575 184.751 7.07685 184.751 8.76856V9.98088C184.751 10.9819 184.383 11.6143 183.556 11.8751C184.557 12.1024 185.05 12.7698 185.05 13.8597V15.4407C185.05 17.1266 184.295 18.0635 182.292 18.0635H179.182V6.14575ZM181.185 11.1698H181.888C182.538 11.1698 182.836 10.8362 182.836 10.2038V8.74665C182.836 8.09678 182.545 7.78059 181.87 7.78059H181.185V11.1698ZM181.185 16.4224V12.698H182.042C182.753 12.698 183.045 13.0317 183.045 13.6641V15.4563C183.045 16.0887 182.728 16.4224 182.06 16.4224H181.185Z" fill="white"/>
<path d="M186.033 6.14575H188.035V16.4228H190.425V18.0562H186.033V6.14575Z" fill="white"/>
<path d="M191.321 6.14575H196.099V7.78064H193.323V11.1874H195.304V12.8048H193.323V16.4228H196.099V18.0562H191.321V6.14575Z" fill="white"/>
<path d="M129.316 32.4684V26.707C129.316 24.8448 130.191 23.4926 132.302 23.4926C134.515 23.4926 135.13 24.7224 135.13 26.4782V27.8844H133.305V26.3209C133.305 25.5821 133.058 25.1552 132.337 25.1552C131.616 25.1552 131.317 25.6652 131.317 26.385V32.7788C131.317 33.4986 131.616 34.0086 132.337 34.0086C133.058 34.0086 133.305 33.5525 133.305 32.8429V30.6587H135.13V32.7147C135.13 34.4181 134.428 35.6828 132.302 35.6828C130.176 35.6828 129.316 34.3175 129.316 32.4684Z" fill="white"/>
<path fill-rule="evenodd" clip-rule="evenodd" d="M136.395 26.7073V32.4687C136.395 34.3178 137.291 35.6831 139.417 35.6831C141.543 35.6831 142.456 34.3134 142.456 32.4687V26.7073C142.456 24.8451 141.525 23.4929 139.417 23.4929C137.308 23.4929 136.395 24.8451 136.395 26.7073ZM140.452 26.3908V32.7846C140.452 33.5044 140.12 34.0144 139.416 34.0144C138.712 34.0144 138.396 33.5044 138.396 32.7846V26.3908C138.396 25.671 138.696 25.161 139.416 25.161C140.136 25.161 140.452 25.671 140.452 26.3908Z" fill="white"/>
<path d="M145.458 28.0594V35.5432H143.771V23.6327H145.74L147.9 30.4666V23.6327H149.569V35.5432H147.806L145.458 28.0594Z" fill="white"/>
<path d="M150.781 32.9786V31.3758H152.643V33.0092C152.643 33.6765 152.934 34.0627 153.626 34.0627C154.259 34.0627 154.54 33.6416 154.54 33.0092V32.5516C154.54 31.8668 154.259 31.4457 153.644 30.8658L152.468 29.6928C151.326 28.5693 150.8 27.8845 150.8 26.5134V26.1097C150.8 24.6337 151.659 23.4869 153.61 23.4869C155.612 23.4869 156.404 24.4705 156.404 26.1913V27.1574H154.575V26.1214C154.575 25.4366 154.259 25.1014 153.626 25.1014C153.064 25.1014 152.678 25.4176 152.678 26.085V26.3312C152.678 26.9986 153.047 27.3847 153.626 27.9472L154.909 29.2119C155.997 30.3179 156.525 30.9852 156.525 32.3039V32.8868C156.525 34.5202 155.65 35.6786 153.61 35.6786C151.57 35.6786 150.781 34.5421 150.781 32.9786Z" fill="white"/>
<path d="M163.568 23.6327V32.6449C163.568 34.4896 162.778 35.683 160.74 35.683C158.631 35.683 157.754 34.4896 157.754 32.6449V23.6327H159.753V32.8373C159.753 33.5411 160.034 34.0146 160.737 34.0146C161.439 34.0146 161.72 33.5411 161.72 32.8373V23.6327H163.568Z" fill="white"/>
<path d="M170.401 27.8132H170.349L168.995 35.5432H168.058L166.572 27.8132H166.536V35.5432H164.885V23.6327H167.216L168.516 30.3427H168.533L169.699 23.6327H172.23V35.5432H170.401V27.8132Z" fill="white"/>
<path fill-rule="evenodd" clip-rule="evenodd" d="M176.509 23.6327H173.545V35.5432H175.547V31.5026H176.509C178.528 31.5026 179.267 30.484 179.267 28.8157V26.3036C179.267 24.6337 178.528 23.6327 176.509 23.6327ZM175.547 29.9565V25.2661H176.284C176.976 25.2661 177.268 25.5823 177.268 26.2321V28.973C177.268 29.6228 176.97 29.9565 176.284 29.9565H175.547Z" fill="white"/>
<path d="M179.921 23.6327H185.251V25.2661H183.591V35.5432H181.572V25.2661H179.921V23.6327Z" fill="white"/>
<path d="M186.192 23.6327H188.194V35.5432H186.192V23.6327Z" fill="white"/>
<path fill-rule="evenodd" clip-rule="evenodd" d="M189.352 26.7071V32.4685C189.352 34.3176 190.248 35.6829 192.374 35.6829C194.5 35.6829 195.413 34.3132 195.413 32.4685V26.7071C195.413 24.8449 194.482 23.4927 192.374 23.4927C190.265 23.4927 189.352 24.8449 189.352 26.7071ZM193.41 26.3909V32.7847C193.41 33.5046 193.077 34.0145 192.374 34.0145C191.67 34.0145 191.354 33.5046 191.354 32.7847V26.3909C191.354 25.6711 191.654 25.1611 192.374 25.1611C193.093 25.1611 193.41 25.6711 193.41 26.3909Z" fill="white"/>
<path d="M198.259 28.0594V35.5432H196.571V23.6327H198.538L200.695 30.4666V23.6327H202.365V35.5432H200.612L198.259 28.0594Z" fill="white"/>
<path fill-rule="evenodd" clip-rule="evenodd" d="M131.248 41.1209L129 53.0314H130.904L131.248 50.853H133.382L133.743 53.0314H135.795L133.527 41.1209H131.248ZM133.115 49.2545H131.512L132.306 44.4752H132.324L133.115 49.2545Z" fill="white"/>
<path d="M138.361 45.5476V53.0314H136.676V41.1209H138.643L140.804 47.9533V41.1209H142.473V53.0314H140.716L138.361 45.5476Z" fill="white"/>
<path fill-rule="evenodd" clip-rule="evenodd" d="M149.656 49.833V44.3178C149.656 42.476 148.901 41.1209 146.758 41.1209H143.666V53.0314H146.758C148.901 53.0314 149.656 51.6602 149.656 49.833ZM147.653 50.184C147.653 50.9053 147.337 51.3963 146.511 51.3963H145.667V42.7542H146.511C147.337 42.7542 147.653 43.2452 147.653 43.949V50.184Z" fill="white"/>
<path fill-rule="evenodd" clip-rule="evenodd" d="M155.716 41.1209H152.748V53.0314H154.75V48.9908H155.716C157.737 48.9908 158.474 47.9708 158.474 46.3024V43.7903C158.474 42.1219 157.737 41.1209 155.716 41.1209ZM154.749 47.4447V42.7543H155.487C156.173 42.7543 156.472 43.0705 156.472 43.7204V46.4612C156.472 47.1111 156.173 47.4447 155.487 47.4447H154.749Z" fill="white"/>
<path fill-rule="evenodd" clip-rule="evenodd" d="M161.565 53.0314V47.5672L163.445 53.0314H165.545L163.63 47.6196C164.777 47.3588 165.233 46.6011 165.233 45.3189V43.7903C165.233 42.1219 164.495 41.1209 162.476 41.1209H159.562V53.0314H161.565ZM161.565 46.4655V42.7586L162.229 42.7659C162.922 42.7659 163.213 43.0821 163.213 43.732V45.4805C163.213 46.1144 162.914 46.4655 162.229 46.4655H161.565Z" fill="white"/>
<path fill-rule="evenodd" clip-rule="evenodd" d="M166.378 44.194V49.9569C166.378 51.8016 167.273 53.1713 169.399 53.1713C171.524 53.1713 172.438 51.8016 172.438 49.9569V44.194C172.438 42.3318 171.506 40.9796 169.399 40.9796C167.292 40.9796 166.378 42.3318 166.378 44.194ZM170.436 43.8778V50.2731C170.436 50.9929 170.103 51.5029 169.399 51.5029C168.695 51.5029 168.379 50.9929 168.379 50.2731V43.8778C168.379 43.158 168.678 42.648 169.399 42.648C170.12 42.648 170.436 43.158 170.436 43.8778Z" fill="white"/>
<path fill-rule="evenodd" clip-rule="evenodd" d="M179.622 49.833V44.3178C179.622 42.476 178.866 41.1209 176.724 41.1209H173.632V53.0314H176.724C178.866 53.0314 179.622 51.6602 179.622 49.833ZM177.619 50.1841C177.619 50.9054 177.304 51.3965 176.478 51.3965H175.634V42.7543H176.478C177.304 42.7543 177.619 43.2453 177.619 43.9491V50.1841Z" fill="white"/>
<path d="M186.631 41.1209V50.1317C186.631 51.9764 185.84 53.1713 183.802 53.1713C181.694 53.1713 180.815 51.9764 180.815 50.1317V41.1209H182.819V50.3255C182.819 51.0279 183.1 51.5029 183.802 51.5029C184.505 51.5029 184.786 51.0279 184.786 50.3255V41.1209H186.631Z" fill="white"/>
<path d="M187.825 49.9569V44.194C187.825 42.3318 188.699 40.9796 190.811 40.9796C193.024 40.9796 193.639 42.2094 193.639 43.9667V45.3714H191.807V43.8079C191.807 43.0706 191.563 42.6422 190.841 42.6422C190.12 42.6422 189.821 43.1522 189.821 43.872V50.2673C189.821 50.9871 190.12 51.4971 190.841 51.4971C191.563 51.4971 191.807 51.0395 191.807 50.3314V48.1472H193.635V50.1988C193.635 51.9022 192.932 53.1669 190.806 53.1669C188.68 53.1669 187.825 51.8016 187.825 49.9569Z" fill="white"/>
<path d="M194.552 41.1209H199.875V42.7543H198.218V53.0314H196.203V42.7543H194.552V41.1209Z" fill="white"/>
<path d="M200.823 41.1209H202.825V53.0314H200.823V41.1209Z" fill="white"/>
<path fill-rule="evenodd" clip-rule="evenodd" d="M203.984 44.194V49.9569C203.984 51.8016 204.879 53.1713 207.005 53.1713C209.131 53.1713 210.044 51.8016 210.044 49.9569V44.194C210.044 42.3318 209.113 40.9796 207.005 40.9796C204.896 40.9796 203.984 42.3318 203.984 44.194ZM208.041 43.8778V50.2731C208.041 50.9929 207.709 51.5029 207.005 51.5029C206.301 51.5029 205.985 50.9929 205.985 50.2731V43.8778C205.985 43.158 206.285 42.648 207.005 42.648C207.725 42.648 208.041 43.158 208.041 43.8778Z" fill="white"/>
<path d="M212.89 45.5476V53.0314H211.202V41.1209H213.171L215.332 47.9533V41.1209H217V53.0314H215.243L212.89 45.5476Z" fill="white"/>
<path d="M109.695 17.2164C106.006 14.3128 101.582 14 99.8518 14C98.939 14 98.0942 14.0811 97.4754 14.2281L97.233 14.284C94.8964 14.8338 90.9859 15.7542 86.4331 21.3847L86.2992 21.5496C86.2266 21.6486 86.1868 21.7678 86.1852 21.8904C86.1856 21.9951 86.2134 22.098 86.2658 22.1888L86.3689 22.3573C87.1203 23.6103 87.7445 24.6984 88.2414 25.6215C88.3308 25.7947 88.4991 25.9138 88.6927 25.9408C88.8862 25.9679 89.0809 25.8996 89.2147 25.7576C89.2464 25.7161 89.2789 25.672 89.3052 25.6386C93.2329 20.22 96.3139 19.4988 98.3529 19.0184L98.6089 18.958C99.0201 18.8793 99.4385 18.8439 99.8572 18.8525C100.805 18.8525 104.101 19.0094 106.671 21.0322C108.959 22.8351 110.119 25.7053 110.119 29.5734C110.119 36.0567 106.972 38.5879 104.329 39.5651C103.296 39.9449 102.203 40.1367 101.102 40.1312C99.4257 40.1226 97.7718 39.7474 96.2569 39.0323L96.0679 38.9422C93.7965 37.9596 90.4052 35.9106 87.1984 29.4941C80.6257 16.333 75.104 15.0908 71.4477 14.2659L71.2559 14.2236C70.9755 14.1596 70.1849 14.0126 68.904 14.0126C66.7873 14.0126 62.7148 14.4273 59.2249 17.2037C56.8422 19.0968 54 22.7774 54 29.5536C54 33.6795 54.853 36.4046 57.0394 39.2703C57.4501 39.8292 61.2593 44.7313 68.5729 44.7313C69.694 44.7276 70.8122 44.6183 71.9127 44.405C73.2478 44.1508 75.3085 43.4927 77.6116 41.8106L79.5338 43.5396C79.7636 43.7326 80.1036 43.7168 80.3145 43.5035C80.4067 43.4063 80.4565 43.2767 80.4529 43.1429L81.94 34.0131V33.9067C81.9387 33.7544 81.873 33.6098 81.7591 33.5083C81.6546 33.4119 81.516 33.361 81.3737 33.3667V33.3667L72.4491 35.8151L72.279 35.843C72.1695 35.8656 72.0702 35.9228 71.9959 36.0062C71.896 36.1144 71.8439 36.258 71.851 36.4049C71.8582 36.5517 71.924 36.6896 72.0339 36.7877L73.8819 38.4536C72.9104 39.0477 71.9389 39.4452 70.9945 39.6255C70.2147 39.7763 69.4224 39.8535 68.6281 39.8563C63.5742 39.8563 61.0874 36.5506 60.9852 36.4109L60.9355 36.3424C59.3977 34.3295 58.8784 32.6158 58.8784 29.5509C58.8784 25.6693 60.0182 22.79 62.2661 21.0052C64.7673 19.0166 67.9858 18.8615 68.9139 18.8615C69.3386 18.8539 69.7629 18.8892 70.1804 18.967L70.3776 19.0112C73.2958 19.6701 77.2922 20.5716 82.8337 31.663C85.7601 37.5224 89.43 41.3482 94.0425 43.3674C94.5789 43.6378 97.4401 44.9999 101.107 44.9999C102.79 45.0053 104.459 44.7101 106.037 44.1282C108.731 43.1267 115 39.7021 115 29.577C114.997 22.809 112.113 19.1202 109.695 17.2164Z" fill="white"/>
<path d="M11.1717 18.661H11.2382V51.797H18.5159V8.50879H12.7002L6 16.3639V23.9593H6.06226L11.1717 18.661V18.661Z" fill="white"/>
<path d="M22.8548 17.4502V22.682H29.4927V17.2549C29.4927 14.6401 30.7808 13.8737 32.3029 13.8737C33.709 13.8737 34.9198 14.4469 34.9198 17.1304V20.7026C34.9198 24.2814 34.6021 25.6832 32.2363 28.1735L28.1574 32.5165C24.2008 36.7307 22.7281 39.5387 22.7281 43.8173V51.7991H41.62V45.8589H29.6838V43.8173C29.6838 40.4318 30.8967 39.1566 32.7473 37.1772L37.4015 32.261C41.1692 28.2401 42 25.6832 42 21.3424V17.1304C42 10.9347 38.9945 8 32.4854 8C26.1008 8 22.8462 11.3834 22.8462 17.4459" fill="white"/>
</svg>
