<svg width="238" height="59" viewBox="0 0 238 59" fill="none" xmlns="http://www.w3.org/2000/svg">
<rect width="238" height="59" rx="15" fill="#4C9F38"/>
<path d="M88.5881 29.855C88.5881 27.6038 87.1481 25.775 84.9561 25.775C83.8625 25.775 82.5425 26.975 81.8257 27.7102C81.1057 26.9718 79.8769 25.7734 78.7857 25.7734C76.5985 25.7734 75.0649 27.5982 75.0649 29.8534C75.0615 30.9281 75.478 31.9615 76.2257 32.7334V32.7334L81.8337 38.3518L87.4337 32.7398L87.4289 32.7358C88.1759 31.9633 88.5918 30.9297 88.5881 29.855Z" fill="white"/>
<path d="M64.7121 47.5254H64.6545C64.228 47.4998 63.8755 47.1835 63.8041 46.7622L60.9553 30.1694L56.6401 38.1694C56.4513 38.519 56.0597 38.708 55.6686 38.6384C55.2775 38.5688 54.9751 38.2562 54.9185 37.863L53.0865 25.059L49.7353 32.587C49.5874 32.9197 49.2578 33.1343 48.8937 33.135H35.8673C35.3803 33.1063 35 32.7029 35 32.215C35 31.7271 35.3803 31.3238 35.8673 31.295H48.2953L52.7041 21.3934C52.8704 21.0186 53.2645 20.7989 53.6707 20.8545C54.077 20.9101 54.3975 21.2277 54.4569 21.6334L56.3457 34.8334L60.6009 26.943C60.7879 26.5979 61.1729 26.4091 61.5603 26.4725C61.9476 26.536 62.2523 26.8379 62.3193 27.2246L64.9593 42.5902L74.5713 10.655C74.6812 10.2915 75.0028 10.0326 75.3814 10.0028C75.76 9.97312 76.1181 10.1787 76.2833 10.5206L81.3417 21.0078C81.4921 21.3051 81.4701 21.6603 81.2844 21.9369C81.0987 22.2134 80.7781 22.368 80.4461 22.3413C80.1141 22.3145 79.8224 22.1105 79.6833 21.8078L75.6529 13.455L65.5929 46.8694C65.4763 47.2586 65.1183 47.5252 64.7121 47.5254V47.5254Z" fill="white"/>
<path d="M16.2391 52C23.7397 52 27 48.0425 27 41.9482V35.4657C27 31.445 25.246 28.8502 21.5187 28.0086C24.5882 27.0361 26.6032 24.57 26.6032 20.8763V17.0497C26.6032 10.8245 23.6038 7 16.7587 7C9.06296 7 6.38808 11.5353 6.38808 18.0221V21.9121H13.1696V17.4378C13.1696 14.7144 14.0203 13.1598 16.3663 13.1598C18.7123 13.1598 19.5586 14.7144 19.5586 17.1129V21.8466C19.5586 24.1819 17.9953 25.4117 15.5857 25.4117H12.7793V31.0568H15.9102C18.5171 31.0568 19.5586 32.2866 19.5586 34.6219V41.8849C19.5586 44.218 18.5171 45.8424 16.2347 45.8424C13.6936 45.8424 12.7793 44.1526 12.7793 41.56V35.2716H6V41.0411C6 47.722 8.67049 52 16.2325 52" fill="white"/>
<path d="M107.229 17.2452H110.854V25.3419H109.019V23.6854C108.683 24.8262 107.967 25.5199 106.582 25.5199C104.389 25.5199 103.384 23.7763 103.384 21.428V14.0919C103.384 11.7213 104.525 10 107.207 10C110.025 10 110.854 11.5655 110.854 13.8025V15.1436H108.528V13.6004C108.528 12.6618 108.17 12.1164 107.253 12.1164C106.337 12.1164 105.933 12.7657 105.933 13.682V21.8231C105.933 22.7394 106.313 23.3886 107.185 23.3886C108.012 23.3886 108.439 22.9194 108.439 21.9344V19.2578H107.229V17.2452Z" fill="white"/>
<path fill-rule="evenodd" clip-rule="evenodd" d="M112.529 14.0919V21.428C112.529 23.7763 113.669 25.5199 116.376 25.5199C119.082 25.5199 120.245 23.7763 120.245 21.428V14.0919C120.245 11.7195 119.06 10 116.376 10C113.692 10 112.529 11.7213 112.529 14.0919ZM117.695 13.6894V21.8306C117.695 22.7469 117.272 23.3961 116.376 23.3961C115.48 23.3961 115.077 22.7469 115.077 21.8306V13.6894C115.077 12.7731 115.459 12.1239 116.376 12.1239C117.292 12.1239 117.695 12.7731 117.695 13.6894Z" fill="white"/>
<path fill-rule="evenodd" clip-rule="evenodd" d="M121.922 14.0919V21.428C121.922 23.7763 123.059 25.5199 125.763 25.5199C128.468 25.5199 129.631 23.7763 129.631 21.428V14.0919C129.631 11.7195 128.453 10 125.769 10C123.085 10 121.922 11.7213 121.922 14.0919ZM127.088 13.6894V21.8306C127.088 22.7469 126.665 23.3961 125.769 23.3961C124.873 23.3961 124.47 22.7469 124.47 21.8306V13.6894C124.47 12.7731 124.853 12.1239 125.769 12.1239C126.685 12.1239 127.088 12.7731 127.088 13.6894Z" fill="white"/>
<path fill-rule="evenodd" clip-rule="evenodd" d="M138.939 21.2704V14.2496C138.939 11.905 137.978 10.1799 135.249 10.1799H131.313V25.3419H135.249C137.978 25.3419 138.939 23.5964 138.939 21.2704ZM136.39 21.7173C136.39 22.6355 135.988 23.2606 134.936 23.2606H133.864V12.2592H134.936C135.988 12.2592 136.39 12.8843 136.39 13.7802V21.7173Z" fill="white"/>
<path d="M149.092 18.655H146.633V25.3419H144.082V10.1799H146.633V16.5979H149.092V10.1799H151.663V25.3419H149.092V18.655Z" fill="white"/>
<path d="M153.34 10.1799H159.424V12.2593H155.9V16.5979H158.426V18.655H155.89V23.2607H159.415V25.3419H153.331L153.34 10.1799Z" fill="white"/>
<path fill-rule="evenodd" clip-rule="evenodd" d="M163.472 10.1799L160.608 25.3419H163.019L163.472 22.5688H166.172L166.645 25.3419H169.263L166.378 10.1799H163.472ZM165.846 20.5339H163.806L164.818 14.4499H164.841L165.846 20.5339Z" fill="white"/>
<path d="M170.537 10.1799H173.085V23.2607H176.127V25.3419H170.537V10.1799Z" fill="white"/>
<path d="M175.77 10.1799H182.546V12.2593H180.444V25.3419H177.871V12.2593H175.77V10.1799Z" fill="white"/>
<path d="M188.964 18.655H186.504V25.3419H183.955V10.1799H186.504V16.5979H188.964V10.1799H191.534V25.3419H188.964V18.655Z" fill="white"/>
<path fill-rule="evenodd" clip-rule="evenodd" d="M105.862 32.4109L103 47.5728H105.415L105.862 44.7905H108.572L109.041 47.5728H111.653L108.769 32.4109H105.862ZM108.238 42.7649H106.198L107.209 36.6827H107.231L108.238 42.7649Z" fill="white"/>
<path d="M115.075 38.0461V47.5728H112.937V32.4109H115.443L118.192 41.1103V32.4109H120.317V47.5728H118.071L115.075 38.0461Z" fill="white"/>
<path fill-rule="evenodd" clip-rule="evenodd" d="M129.61 43.5032V36.4824C129.61 34.1341 128.649 32.4109 125.921 32.4109H121.985V47.5728H125.921C128.649 47.5728 129.61 45.8292 129.61 43.5032ZM127.062 43.9502C127.062 44.8684 126.659 45.4935 125.607 45.4935L124.533 45.5009V34.4995H125.607C126.659 34.4995 127.062 35.1246 127.062 36.0187V43.9502Z" fill="white"/>
<path d="M139.36 38.2037L137.93 47.5728H135.537L133.497 32.4109H135.956L137.141 42.0267H137.164L138.438 32.4109H140.517L141.927 42.0267H141.949L143.112 32.4109H145.258L143.29 47.5728H140.879L139.38 38.2037H139.36Z" fill="white"/>
<path d="M146.583 32.4109H152.665V34.4921H149.141V38.8288H151.667V40.8878H149.133V45.4935H152.658V47.5728H146.583V32.4109Z" fill="white"/>
<path d="M154.253 32.4109H156.803V45.4935H159.843V47.5728H154.253V32.4109Z" fill="white"/>
<path d="M161.231 32.4109H163.78V45.4935H166.822V47.5728H161.231V32.4109Z" fill="white"/>
<path d="M166.486 38.6155H170.068V40.6559H166.486V38.6155Z" fill="white"/>
<path fill-rule="evenodd" clip-rule="evenodd" d="M171.585 32.4109H175.274C177.823 32.4109 178.672 33.5962 178.672 35.7497V37.293C178.672 38.5673 178.203 39.3723 177.153 39.7043C178.427 39.9937 179.053 40.8432 179.053 42.2307V44.2433C179.053 46.3894 178.092 47.5821 175.543 47.5821H171.585V32.4109ZM174.133 38.801H175.027C175.855 38.801 176.235 38.3762 176.235 37.5712V35.7163C176.235 34.889 175.864 34.4865 175.005 34.4865H174.133V38.801ZM174.133 45.4879V40.7468H175.224C176.118 40.7468 176.498 41.1716 176.498 41.9766V44.2581C176.498 45.0631 176.096 45.4879 175.246 45.4879H174.133Z" fill="white"/>
<path d="M180.551 32.4109H186.634V34.4921H183.109V38.8288H185.637V40.8878H183.1V45.4935H186.624V47.5728H180.551V32.4109Z" fill="white"/>
<path d="M188.221 32.4109H190.77V47.5728H188.221V32.4109Z" fill="white"/>
<path d="M194.617 38.0461V47.5728H192.471V32.4109H194.975L197.726 41.1103V32.4109H199.85V47.5728H197.624L194.617 38.0461Z" fill="white"/>
<path d="M205.374 39.478H208.996V47.5728H207.166V45.9182C206.83 47.059 206.116 47.7527 204.728 47.7527C202.538 47.7527 201.53 46.0073 201.53 43.659V36.3247C201.53 33.9541 202.671 32.2328 205.355 32.2328C208.173 32.2328 209 33.7983 209 36.0335V37.3764H206.67V35.8331C206.67 34.8946 206.312 34.3492 205.396 34.3492C204.48 34.3492 204.075 34.9984 204.075 35.9148V44.0559C204.075 44.9722 204.446 45.6196 205.329 45.6196C206.156 45.6196 206.581 45.1503 206.581 44.1672V41.4906H205.374V39.478Z" fill="white"/>
</svg>
