<svg width="238" height="59" viewBox="0 0 238 59" fill="none" xmlns="http://www.w3.org/2000/svg">
<rect width="238" height="59" rx="15" fill="#C5192D"/>
<path fill-rule="evenodd" clip-rule="evenodd" d="M26.888 51.8337H19.5889V44.3982H6V39.6655L19.3162 6H26.888V38.3834H30V44.3982H26.888V51.8337ZM19.664 19.5161L12.7695 38.3833H19.7322V19.5161H19.664Z" fill="white"/>
<path fill-rule="evenodd" clip-rule="evenodd" d="M117.96 26.6604V25.613C115.891 25.2488 115.004 23.722 115.004 21.6291V14.1632C115.004 11.7513 116.169 10 118.918 10C121.668 10 122.851 11.7532 122.851 14.1632V21.6291C122.851 23.3144 122.26 24.6336 120.939 25.2696L122.851 25.6357V27.572L117.96 26.6604ZM118.92 12.1647C118.007 12.1647 117.599 12.8233 117.599 13.7556V22.1764C117.599 23.0861 117.988 23.7711 118.92 23.7711C119.852 23.7711 120.26 23.0861 120.26 22.1764V13.7556C120.26 12.8233 119.833 12.1647 118.92 12.1647Z" fill="white"/>
<path d="M128.427 25.796C131.07 25.796 132.092 24.2466 132.092 21.8574V10.1811H129.701V22.1084C129.701 23.018 129.337 23.6333 128.427 23.6333C127.518 23.6333 127.154 23.018 127.154 22.1084V10.1811H124.559V21.8574C124.559 24.2466 125.691 25.796 128.427 25.796" fill="white"/>
<path fill-rule="evenodd" clip-rule="evenodd" d="M138.679 22.7897H135.935L135.471 25.6129H133.017L135.935 10.1811H138.892L141.821 25.6205H139.159L138.679 22.7897ZM137.324 14.5293H137.298L136.271 20.7194H138.347L137.324 14.5293Z" fill="white"/>
<path d="M148.812 23.4955H145.72V10.1811H143.125V25.613H148.812V23.4955V23.4955Z" fill="white"/>
<rect x="150.016" y="10.1811" width="2.59302" height="15.43" fill="white"/>
<path d="M155.968 25.613H158.582V12.2986H160.722V10.1811H153.832V12.2986H155.968V25.613V25.613Z" fill="white"/>
<path d="M164.404 25.613H166.999V19.7399L169.864 10.1811H167.384L165.814 16.0315H165.791L164.223 10.1811H161.515L164.404 19.7399V25.613V25.613Z" fill="white"/>
<path d="M121.186 46.1234H117.593V41.4318H120.162V39.3407H117.593V34.9246H121.186V32.8071H115V48.2371H121.186V46.1234V46.1234Z" fill="white"/>
<path fill-rule="evenodd" clip-rule="evenodd" d="M130.536 36.9496V44.0947L130.541 44.0777C130.541 46.4537 129.566 48.2296 126.79 48.2296H122.777V32.7977H126.784C129.56 32.7977 130.536 34.5604 130.536 36.9496ZM125.378 34.9228V46.1046L126.471 46.1216C127.539 46.1216 127.946 45.4837 127.946 44.5514V36.4703C127.946 35.5607 127.539 34.9228 126.471 34.9228H125.378Z" fill="white"/>
<path d="M132.244 32.8071V44.4834C132.244 46.8745 133.376 48.4202 136.111 48.4202C138.753 48.4202 139.774 46.8745 139.774 44.4834V32.8071H137.386V44.7325C137.386 45.6441 137.02 46.2574 136.111 46.2574C135.201 46.2574 134.837 45.6441 134.837 44.7325V32.8071H132.244Z" fill="white"/>
<path d="M141.48 44.2551C141.48 46.6443 142.612 48.4202 145.349 48.4202C148.085 48.4202 149.01 46.7821 149.01 44.5721V41.9111H146.645V44.7552C146.645 45.6667 146.326 46.265 145.394 46.265C144.462 46.265 144.073 45.6063 144.073 44.6703V36.3816C144.073 35.4474 144.45 34.7868 145.394 34.7868C146.337 34.7868 146.645 35.3323 146.645 36.2966V38.3216H149.01V36.4929C149.01 34.2282 148.213 32.6241 145.349 32.6241C142.618 32.6241 141.48 34.3773 141.48 36.7892V44.2551Z" fill="white"/>
<path fill-rule="evenodd" clip-rule="evenodd" d="M155.475 45.4138H152.716L152.256 48.2447H149.802L152.716 32.8147H155.674L158.608 48.2447H155.953L155.475 45.4138ZM154.102 37.1534H154.079L153.05 43.3435H155.126L154.102 37.1534Z" fill="white"/>
<path d="M158.285 34.9246H160.422V48.2371H163.039V34.9246H165.176V32.8071H158.285V34.9246V34.9246Z" fill="white"/>
<rect x="166.61" y="32.8071" width="2.59493" height="15.4318" fill="white"/>
<path fill-rule="evenodd" clip-rule="evenodd" d="M178.779 44.2531C178.779 46.6461 177.598 48.4201 174.848 48.4201C172.117 48.4201 170.936 46.6461 170.936 44.2531V36.7891C170.936 34.3773 172.098 32.6259 174.848 32.6259C177.598 32.6259 178.779 34.3773 178.779 36.7891V44.2531ZM174.848 34.7887C173.936 34.7887 173.527 35.4474 173.527 36.3797V44.6627C173.527 45.5988 173.915 46.2574 174.848 46.2574C175.78 46.2574 176.19 45.6063 176.19 44.6627V36.3797C176.19 35.4474 175.759 34.7887 174.848 34.7887Z" fill="white"/>
<path d="M182.674 38.5405L185.724 48.2408H188V32.8052H185.837V41.66L183.038 32.8052H180.493V48.2408H182.674V38.5405V38.5405Z" fill="white"/>
<path d="M66.8671 20.2077L50.4947 10.7534V41.3364L66.8671 46.2762V20.2077V20.2077Z" fill="white"/>
<path d="M68.6683 20.2697V46.2871L85.1465 41.3327V10.7543L68.6683 20.2697V20.2697Z" fill="white"/>
<path d="M97.9995 9.97928C98.0148 9.27731 97.649 8.62205 97.0435 8.26659C96.438 7.91114 95.6876 7.91114 95.0821 8.26659C94.4765 8.62205 94.1108 9.27731 94.126 9.97928V12.0653H97.9995V9.97928Z" fill="white"/>
<path d="M94.6071 40.7941H94.126L96.0641 47.5643L97.9986 40.7941H97.5175H97.9986V13.5844H97.5175H97.0364H96.527H95.5629H95.0873H94.6071H94.1251V40.7941H94.6071V40.7941Z" fill="white"/>
<path d="M88.664 12.0672L86.9085 10.6805V42.1663L68.7166 48.0446H67.8749H67.7078H66.867L48.7565 42.9843V10.6805L47 12.0672V44.2158L66.784 49.6933H67.7078H67.8749H68.7988L87.0518 43.8981L88.664 43.4234V12.0672V12.0672Z" fill="white"/>
</svg>
