<svg width="238" height="59" viewBox="0 0 238 59" fill="none" xmlns="http://www.w3.org/2000/svg">
<rect width="238" height="59" rx="15" fill="#A21942"/>
<path d="M78.1853 16.1264L68.7855 25.0665C68.4313 25.4189 68.2491 25.6788 68.2491 26.4094V51.4717C68.2502 51.7672 68.49 52.0063 68.7855 52.0063H78.4961C78.7914 52.0063 79.031 51.7671 79.0315 51.4717V16.3502C79.0315 16.0543 78.8003 15.5179 78.1863 16.1246" fill="white"/>
<path d="M51.1049 27.779L41.7042 36.7154C41.3509 37.0687 41.1678 37.3277 41.1678 38.0573V51.4671C41.1693 51.7623 41.409 52.0007 41.7042 52.0007H51.4147C51.7097 52.0007 51.9492 51.7621 51.9502 51.4671V27.9991C51.9502 27.7022 51.7162 27.1612 51.1049 27.7744" fill="white"/>
<path d="M82.4579 5.28022C82.4622 5.20407 82.4332 5.12981 82.3784 5.07676C82.331 5.0319 82.2696 5.00478 82.2045 5H82.1527H82.076L74.8782 6.63137L74.7478 6.64524C74.695 6.65609 74.6464 6.68139 74.6072 6.7183C74.502 6.82607 74.502 6.99803 74.6072 7.10579L74.6886 7.18718L76.3329 8.83057L60.0229 25.1405L52.4903 17.6061C52.45 17.5647 52.3946 17.5414 52.3368 17.5414C52.279 17.5414 52.2237 17.5647 52.1833 17.6061L50.1395 19.6508L38.0624 31.727C37.9792 31.8125 37.9792 31.9486 38.0624 32.0341L40.109 34.0797C40.1493 34.1202 40.204 34.143 40.2611 34.143C40.3182 34.143 40.373 34.1202 40.4132 34.0797L52.3433 22.1571L57.8089 27.6246C57.8141 27.6336 57.82 27.6423 57.8265 27.6505L59.8713 29.6924C59.9115 29.7337 59.9667 29.757 60.0243 29.757C60.082 29.757 60.1372 29.7337 60.1774 29.6924L78.6838 11.1824L80.4095 12.9071C80.46 12.9586 80.5292 12.9876 80.6013 12.9876C80.6735 12.9876 80.7427 12.9586 80.7932 12.9071C80.8415 12.8604 80.8697 12.7967 80.8719 12.7296V12.7074L82.4524 5.35975L82.4579 5.28022Z" fill="white"/>
<path d="M64.6988 29.3438L60.1505 33.929C60.0647 34.0018 59.9375 33.997 59.8574 33.9179L55.7374 29.7211C54.9827 28.9702 54.8199 29.5797 54.8199 29.8747V51.4699C54.8197 51.6114 54.8757 51.7473 54.9756 51.8475C55.0755 51.9478 55.2111 52.0042 55.3526 52.0045H65.0631C65.3578 52.0034 65.5962 51.7646 65.5967 51.4699V29.5131C65.5967 29.2181 65.3646 28.6752 64.6969 29.3438" fill="white"/>
<path fill-rule="evenodd" clip-rule="evenodd" d="M27.9973 40.6589V35.8608C27.9973 31.6472 26.5077 28.5982 23.0683 27.041C25.9842 25.6168 27.3495 23.0214 27.3495 19.3901V17.5712C27.3495 10.6967 23.7836 7 16.9725 7C10.2289 7 6.7219 10.7077 6.7219 17.5712V19.3901C6.7219 22.9582 8.03049 25.6168 10.8657 27.041C7.42854 28.5982 6 31.6472 6 35.8608V40.6589C6 47.3371 9.17986 52 16.9637 52C24.8152 52 27.9886 47.3284 27.9886 40.6589H27.9973ZM13.6531 17.1044C13.6531 14.4414 14.5647 12.8864 16.9638 12.8864C19.4261 12.8864 20.3356 14.4414 20.3356 17.1044V20.0858C20.3356 22.7444 19.4261 24.3059 16.9638 24.3059C14.5647 24.3059 13.6531 22.7444 13.6531 20.0858V17.1044ZM16.9726 45.9762C19.6312 45.9762 20.6039 44.0962 20.6039 41.4354V34.3014C20.6039 31.6428 19.6312 29.7607 16.9726 29.7607C14.3772 29.7607 13.4045 31.6428 13.4045 34.3014V41.4354C13.4045 44.0962 14.3772 45.9762 16.9726 45.9762Z" fill="white"/>
<path fill-rule="evenodd" clip-rule="evenodd" d="M110.669 21.3342V14.2736C110.669 11.9213 109.701 10.1809 106.958 10.1809H103V25.4269H106.958C109.701 25.4269 110.669 23.6734 110.669 21.3342ZM108.106 21.7837C108.106 22.7071 107.701 23.3357 106.643 23.3357H105.563V12.272H106.643C107.701 12.272 108.106 12.9006 108.106 13.8016V21.7837Z" fill="white"/>
<path d="M112.288 10.1809H118.404V12.272H114.86V16.6352H117.401V18.7039H114.851V23.3357H118.395V25.4269H112.288V10.1809Z" fill="white"/>
<path d="M119.708 21.4928V14.1151C119.708 11.7311 120.828 10 123.53 10C126.364 10 127.151 11.5744 127.151 13.8241V15.6223H124.814V13.6207C124.814 12.6769 124.499 12.1284 123.577 12.1284C122.656 12.1284 122.271 12.7813 122.271 13.7028V21.8901C122.271 22.8116 122.654 23.4645 123.577 23.4645C124.5 23.4645 124.814 22.8787 124.814 21.9722V19.1759H127.151V21.808C127.151 23.9905 126.252 25.6097 123.53 25.6097C120.809 25.6097 119.708 23.8599 119.708 21.4928Z" fill="white"/>
<path d="M128.703 10.1809H134.82V12.272H131.276V16.6352H133.818V18.7039H131.266V23.3357H134.811V25.4269H128.703V10.1809Z" fill="white"/>
<path d="M138.5 15.848V25.4269H136.35V10.1809H138.873L141.64 18.9278V10.1809H143.776V25.4269H141.522L138.5 15.848Z" fill="white"/>
<path d="M145.097 10.1809H151.911V12.272H149.797V25.4269H147.21V12.272H145.097V10.1809Z" fill="white"/>
<path d="M161.311 16.0047L159.872 25.4269H157.466L155.414 10.1809H157.901L159.093 19.8512H159.115L160.397 10.1809H162.488L163.904 19.8512H163.926L165.096 10.1809H167.256L165.269 25.4269H162.844L161.337 16.0047H161.311Z" fill="white"/>
<path fill-rule="evenodd" clip-rule="evenodd" d="M168.282 14.1151V21.4928C168.282 23.86 169.431 25.6078 172.151 25.6078C174.87 25.6078 176.04 23.8544 176.04 21.4928V14.1151C176.04 11.7311 174.85 10 172.151 10C169.451 10 168.282 11.7311 168.282 14.1151ZM173.477 13.7103V21.8976C173.477 22.8191 173.052 23.472 172.151 23.472C171.25 23.472 170.845 22.8191 170.845 21.8976V13.7103C170.845 12.7888 171.229 12.1359 172.151 12.1359C173.072 12.1359 173.477 12.7888 173.477 13.7103Z" fill="white"/>
<path fill-rule="evenodd" clip-rule="evenodd" d="M180.222 25.4269V18.4335L182.629 25.4269H185.322L182.869 18.5006C184.337 18.1667 184.921 17.1967 184.921 15.5551V13.5983C184.921 11.4624 183.977 10.1809 181.39 10.1809H177.659V25.4269H180.222ZM180.222 17.0233V12.2777L181.077 12.287C181.965 12.287 182.338 12.6918 182.338 13.5238V15.7622C182.338 16.5718 181.955 17.0233 181.077 17.0233H180.222Z" fill="white"/>
<path d="M189.038 18.0063V25.4269H186.475V10.1809H189.038V16.8814L191.836 10.1809H194.354L191.386 17.04L194.421 25.4343H191.715L189.038 18.0063Z" fill="white"/>
<path fill-rule="evenodd" clip-rule="evenodd" d="M200.866 10.1809L197.988 25.4269H200.417L200.866 22.6399H203.588L204.06 25.4269H206.692L203.789 10.1809H200.866ZM203.256 20.5917H201.204L202.221 14.4751H202.245L203.256 20.5917Z" fill="white"/>
<path d="M209.705 15.848V25.4269H207.545V10.1809H210.065L212.831 18.9278V10.1809H214.967V25.4269H212.718L209.705 15.848Z" fill="white"/>
<path fill-rule="evenodd" clip-rule="evenodd" d="M224.322 21.3342V14.2736C224.322 11.9213 223.354 10.1809 220.618 10.1809H216.661V25.4269H220.61C223.354 25.4269 224.322 23.6734 224.322 21.3342ZM221.757 21.7837C221.757 22.7071 221.353 23.3357 220.297 23.3357H219.217V12.272H220.297C221.353 12.272 221.757 12.9006 221.757 13.8016V21.7837Z" fill="white"/>
<path d="M103 32.5731H109.117V34.6642H105.563V39.0274H108.106V41.0961H105.563V45.7297H109.117V47.8209H103V32.5731Z" fill="white"/>
<path d="M110.242 43.8849V36.5091C110.242 34.1251 111.361 32.394 114.064 32.394C116.897 32.394 117.685 33.9666 117.685 36.2162V38.0164H115.345V36.0148C115.345 35.069 115.032 34.5225 114.109 34.5225C113.185 34.5225 112.803 35.1735 112.803 36.0969V44.2822C112.803 45.2038 113.185 45.8566 114.109 45.8566C115.032 45.8566 115.345 45.2728 115.345 44.3643V41.5681H117.685V44.1927C117.685 46.3734 116.785 47.9925 114.064 47.9925C111.342 47.9925 110.242 46.2446 110.242 43.8849Z" fill="white"/>
<path fill-rule="evenodd" clip-rule="evenodd" d="M119.078 36.5091V43.8849C119.078 46.2447 120.225 48 122.947 48C125.668 48 126.838 46.2465 126.838 43.8849V36.5091C126.838 34.1251 125.646 32.394 122.947 32.394C120.247 32.394 119.078 34.1251 119.078 36.5091ZM124.273 36.1044V44.2898C124.273 45.2113 123.848 45.8642 122.947 45.8642C122.046 45.8642 121.641 45.2113 121.641 44.2898V36.1044C121.641 35.181 122.025 34.53 122.947 34.53C123.868 34.53 124.273 35.181 124.273 36.1044Z" fill="white"/>
<path d="M130.457 38.2402V47.8209H128.299V32.5731H130.817L133.583 41.3218V32.5731H135.719V47.8209H133.464L130.457 38.2402Z" fill="white"/>
<path fill-rule="evenodd" clip-rule="evenodd" d="M137.182 36.5091V43.8849C137.182 46.2447 138.327 48 141.049 48C143.77 48 144.94 46.2465 144.94 43.8849V36.5091C144.94 34.1251 143.746 32.394 141.049 32.394C138.351 32.394 137.182 34.1251 137.182 36.5091ZM142.377 36.1044V44.2898C142.377 45.2113 141.95 45.8642 141.049 45.8642C140.148 45.8642 139.743 45.2113 139.743 44.2898V36.1044C139.743 35.181 140.125 34.53 141.049 34.53C141.972 34.53 142.377 35.181 142.377 36.1044Z" fill="white"/>
<path d="M153.463 37.9249H153.396L151.663 47.8115H150.471L148.561 37.9249H148.514V47.8115H146.401V32.5731H149.385L151.049 41.1539H151.072L152.564 32.5731H155.804V47.8209H153.463V37.9249Z" fill="white"/>
<path d="M157.263 32.5731H159.826V47.8209H157.263V32.5731Z" fill="white"/>
<path d="M161.258 43.8849V36.5091C161.258 34.1251 162.378 32.394 165.081 32.394C167.914 32.394 168.701 33.9666 168.701 36.2162V38.0164H166.37V36.0148C166.37 35.069 166.054 34.5225 165.133 34.5225C164.211 34.5225 163.827 35.1735 163.827 36.0969V44.2822C163.827 45.2038 164.209 45.8566 165.133 45.8566C166.056 45.8566 166.37 45.2728 166.37 44.3643V41.5681H168.709V44.1927C168.709 46.3734 167.81 47.9925 165.088 47.9925C162.366 47.9925 161.258 46.2446 161.258 43.8849Z" fill="white"/>
<path d="M176.939 39.6803H180.582V47.8209H178.739V46.157C178.402 47.3042 177.682 48 176.288 48C174.083 48 173.072 46.2465 173.072 43.8849V36.5091C173.072 34.1251 174.218 32.394 176.917 32.394C179.75 32.394 180.582 33.9666 180.582 36.2163V37.5649H178.243V36.0148C178.243 35.069 177.883 34.5225 176.962 34.5225C176.04 34.5225 175.635 35.1735 175.635 36.0969V44.2823C175.635 45.2038 176.008 45.8567 176.894 45.8567C177.726 45.8567 178.154 45.3847 178.154 44.3942V41.7043H176.939V39.6803Z" fill="white"/>
<path fill-rule="evenodd" clip-rule="evenodd" d="M184.608 47.8283V40.8349L187.014 47.8209H189.706L187.253 40.8946C188.719 40.5588 189.305 39.5888 189.305 37.9473V35.9905C189.305 33.8546 188.359 32.5731 185.773 32.5731H182.043V47.8283H184.608ZM184.607 39.4247V34.6791L185.462 34.6642C186.348 34.6642 186.721 35.069 186.721 35.9009V38.1655C186.721 38.9751 186.338 39.4247 185.462 39.4247H184.607Z" fill="white"/>
<path fill-rule="evenodd" clip-rule="evenodd" d="M190.476 36.5091V43.8849C190.476 46.2447 191.623 48 194.345 48C197.066 48 198.234 46.2465 198.234 43.8849V36.5091C198.234 34.1251 197.044 32.394 194.345 32.394C191.646 32.394 190.476 34.1251 190.476 36.5091ZM195.671 36.1044V44.2898C195.671 45.2113 195.246 45.8642 194.345 45.8642C193.444 45.8642 193.039 45.2113 193.039 44.2898V36.1044C193.039 35.181 193.423 34.53 194.345 34.53C195.266 34.53 195.671 35.181 195.671 36.1044Z" fill="white"/>
<path d="M204.801 38.3968L203.362 47.8209H200.956L198.904 32.5731H201.383L202.575 42.2433H202.598L203.879 32.5731H205.97L207.388 42.2433H207.41L208.58 32.5731H210.738L208.759 47.8209H206.334L204.827 38.3968H204.801Z" fill="white"/>
<path d="M211.525 32.5731H218.34V34.6642H216.226V47.8209H213.639V34.6642H211.525V32.5731Z" fill="white"/>
<path d="M224.164 41.0961H221.698V47.8115H219.125V32.5731H221.698V39.0274H224.171V32.5731H226.757V47.8209H224.164V41.0961Z" fill="white"/>
</svg>
